# xmcd
#
# Track frame offsets:
#	150
#	8050
#	44215
#	57032
#	71480
#	94535
#	104050
#	120095
#	126622
#	149025
#	177095
#	193257
#
# Disc length: 2775 seconds
#
# Revision: 0
# Processed by: cddbd v1.5.1PL2 Copyright (c) Steve Scherf et al.
# Submitted via: dBpowerAMP V4.0
#
DISCID=b20ad50c
DTITLE=Eugene Chadbourne - LSD C and W The History of the Chadbournes In America CD 2
DYEAR=1900
DGENRE=Alternative
TTITLE0=Wine me up
TTITLE1=Roger Miller medly
TTITLE2=House burning down
TTITLE3=Third stone from the sun
TTITLE4=Funny how time slips away
TTITLE5=Ghosts
TTITLE6=7 and 7
TTITLE7=The Burl Ives medley
TTITLE8=Wild Horses
TTITLE9=W VA Spec (Zorn tribute)
TTITLE10=Nobody loves me but my mother
TTITLE11=No reason to quit
EXTD=
EXTT0=
EXTT1=
EXTT2=
EXTT3=
EXTT4=
EXTT5=
EXTT6=
EXTT7=
EXTT8=
EXTT9=
EXTT10=
EXTT11=
PLAYORDER=
